<svg xmlns="http://www.w3.org/2000/svg" viewBox="0 0 64 64" width="64" height="64">
  <rect width="64" height="64" rx="12" fill="#111214"/>
  <!-- Left curly brace -->
  <path d="M22 10 Q16 10 16 17 L16 26 Q16 32 11 32 Q16 32 16 38 L16 47 Q16 54 22 54"
        stroke="#3b82f6" stroke-width="4" fill="none" stroke-linecap="round" stroke-linejoin="round"/>
  <!-- Database cylinder -->
  <ellipse cx="32" cy="24" rx="6" ry="2" fill="#3b82f6"/>
  <rect x="26" y="24" width="12" height="4.5" fill="#3b82f6"/>
  <ellipse cx="32" cy="28.5" rx="6" ry="2" fill="#3b82f6"/>
  <rect x="26" y="28.5" width="12" height="4.5" fill="#3b82f6"/>
  <ellipse cx="32" cy="33" rx="6" ry="2" fill="#3b82f6"/>
  <!-- Right curly brace -->
  <path d="M42 10 Q48 10 48 17 L48 26 Q48 32 53 32 Q48 32 48 38 L48 47 Q48 54 42 54"
        stroke="#3b82f6" stroke-width="4" fill="none" stroke-linecap="round" stroke-linejoin="round"/>
  <!-- Arrow -->
  <path d="M55 32 L62 32 M58 28 L62 32 L58 36"
        stroke="#3b82f6" stroke-width="3.5" fill="none" stroke-linecap="round" stroke-linejoin="round"/>
</svg>
